# xmcd
#
# Track frame offsets:
#	182
#	12157
#	23057
#	32572
#	45920
#	58850
#	71415
#	83345
#	100112
#	115047
#	131745
#	153437
#	166770
#	176947
#	194682
#	204307
#
# Disc length: 2847 seconds
#
# Revision: 1
# Processed by: cddbd v1.5.2PL0 Copyright (c) Steve Scherf et al.
# Submitted via: audiograbber 1.83.01
#
DISCID=c50b1d10
DTITLE=Varius - ON THE ROAD
DYEAR=1900
DGENRE=Country
TTITLE0=Hallo, guten Morgen Deutschland
TTITLE1=Green Green Grass Of Home
TTITLE2=Six Days On The Road
TTITLE3=Hey Boss - Ich brauch mehr Geld
TTITLE4=Rose Garden
TTITLE5=Der wilde, wilde Westen
TTITLE6=Ring Of Fire
TTITLE7=Help Me Make It Thohgh The Night
TTITLE8=Wenn du denkst du denkst dann denkst du nur du denkst
TTITLE9=The Sreets Of Laredo
TTITLE10=Ruf' Teddybär eins-vier
TTITLE11=Take Me Home Country Roads
TTITLE12=Put A Little Love in Your Heart
TTITLE13=Komm unter meine Decke
TTITLE14=Bonanza
TTITLE15=Keep On Truckin
EXTD=herausgegeben von ESSO
EXTT0=
EXTT1=
EXTT2=
EXTT3=
EXTT4=
EXTT5=
EXTT6=
EXTT7=
EXTT8=
EXTT9=
EXTT10=
EXTT11=
EXTT12=
EXTT13=
EXTT14=
EXTT15=
PLAYORDER=
